<svg id="Calque_1" data-name="Calque 1" xmlns="http://www.w3.org/2000/svg" viewBox="0 0 2506.72 1065.7"><title>LOGO_ZENITH_2019_BLACK_BASELINE</title><polygon points="1253.36 0 1294 125.06 1425.49 125.06 1319.11 202.35 1359.74 327.42 1253.36 250.12 1146.98 327.42 1187.61 202.35 1081.23 125.06 1212.73 125.06 1253.36 0"/><path d="M651,2361.09l295.46-436.76H692.62v-71.9h399.51L796.66,2289.19h292.42v71.9Z" transform="translate(-650.95 -1437.35)"/><path d="M1256.27,2069.78h223.87v72H1256.27v147.39H1519.9v72H1176.75V1852.47H1519.9v72H1256.67Z" transform="translate(-650.95 -1437.35)"/><path d="M2127.45,2361.13V1852.47H2207v508.66Z" transform="translate(-650.95 -1437.35)"/><path d="M2637.78,1924.44H2506.31v436.69h-80.2V1924.44H2294.64v-72h343.14Z" transform="translate(-650.95 -1437.35)"/><path d="M3157.67,2361.13h-79.52V2141.76H2805v219.37h-79.53V1852.47H2805v217.31h273.19V1852.47h79.52Z" transform="translate(-650.95 -1437.35)"/><path d="M1607.55,1844.32l352.72,341.33v-333.1l79.52-.17v516.9l-352.71-341v332.93l-79.53-.17Z" transform="translate(-650.95 -1437.35)"/><path d="M673.59,2501.73h-5.25v-46.89H651.09v-4.66h39.75v4.66H673.59Z" transform="translate(-650.95 -1437.35)"/><path d="M716.77,2450.18H722v22.35h28.11v-22.35h5.24v51.55h-5.24v-24.39H722v24.39h-5.24Z" transform="translate(-650.95 -1437.35)"/><path d="M792.5,2497.07h27.6v4.66H787.26v-51.55h32v4.66H792.5v17.69h25v4.66h-25Z" transform="translate(-650.95 -1437.35)"/><path d="M890.22,2501.73H885v-51.55h31.1v4.66H890.22v17.84h24v4.66h-24Z" transform="translate(-650.95 -1437.35)"/><path d="M963.12,2503a20,20,0,0,1-9.54-2,17,17,0,0,1-5.9-5.06,18.42,18.42,0,0,1-3-6.66,30.15,30.15,0,0,1-.84-6.81v-32.33h5.24v31.75a25.11,25.11,0,0,0,.73,6.08,15.17,15.17,0,0,0,2.37,5.24,12.08,12.08,0,0,0,4.33,3.71,16.16,16.16,0,0,0,13.25,0,12.19,12.19,0,0,0,4.34-3.71,15.16,15.16,0,0,0,2.36-5.24,25.11,25.11,0,0,0,.73-6.08v-31.75h5.24v32.33a30.69,30.69,0,0,1-.83,6.81,18.61,18.61,0,0,1-3,6.66,16.79,16.79,0,0,1-5.93,5.06A20.11,20.11,0,0,1,963.12,2503Z" transform="translate(-650.95 -1437.35)"/><path d="M1030.55,2501.73h-5.25v-46.89h-17.25v-4.66h39.75v4.66h-17.25Z" transform="translate(-650.95 -1437.35)"/><path d="M1092.73,2503a20,20,0,0,1-9.53-2,16.86,16.86,0,0,1-5.9-5.06,18.61,18.61,0,0,1-3-6.66,30.69,30.69,0,0,1-.83-6.81v-32.33h5.24v31.75a25.11,25.11,0,0,0,.73,6.08,15,15,0,0,0,2.37,5.24,12.08,12.08,0,0,0,4.33,3.71,16.16,16.16,0,0,0,13.25,0,12.08,12.08,0,0,0,4.33-3.71,15.17,15.17,0,0,0,2.37-5.24,25.11,25.11,0,0,0,.73-6.08v-31.75H1112v32.33a30.69,30.69,0,0,1-.83,6.81,18.61,18.61,0,0,1-3,6.66,16.79,16.79,0,0,1-5.93,5.06A20.13,20.13,0,0,1,1092.73,2503Z" transform="translate(-650.95 -1437.35)"/><path d="M1148.88,2501.73h-5.25v-51.55h15.15a32.37,32.37,0,0,1,7,.72,16,16,0,0,1,5.61,2.37,11.15,11.15,0,0,1,3.67,4.26,14.17,14.17,0,0,1,1.31,6.41,12.65,12.65,0,0,1-3.78,9.21,13.37,13.37,0,0,1-4.15,2.73,18,18,0,0,1-5.25,1.31l15.08,24.54h-6.41l-14.27-24.1h-8.74Zm0-28.62h9.1q6.33,0,9.76-2.29a7.73,7.73,0,0,0,3.42-6.88,9,9,0,0,0-1-4.3,7.76,7.76,0,0,0-2.62-2.84,11.8,11.8,0,0,0-4.08-1.6,25.59,25.59,0,0,0-5.31-.51h-9.32Z" transform="translate(-650.95 -1437.35)"/><path d="M1210.7,2497.07h27.6v4.66h-32.84v-51.55h32v4.66H1210.7v17.69h25v4.66h-25Z" transform="translate(-650.95 -1437.35)"/><path d="M1354.16,2476a28.18,28.18,0,0,1-2,10.85A25.6,25.6,0,0,1,1338,2501a28.9,28.9,0,0,1-21.33,0,25.54,25.54,0,0,1-14.16-14.2,29.87,29.87,0,0,1,0-21.7,25.62,25.62,0,0,1,14.16-14.2,29,29,0,0,1,21.33,0,25.68,25.68,0,0,1,14.17,14.2A28.25,28.25,0,0,1,1354.16,2476Zm-5.54,0a25.31,25.31,0,0,0-1.45-8.58,21.55,21.55,0,0,0-4.23-7.16,20.33,20.33,0,0,0-6.73-4.91,22.88,22.88,0,0,0-17.84,0,20.27,20.27,0,0,0-6.74,4.91,21.36,21.36,0,0,0-4.22,7.16,25.94,25.94,0,0,0,0,17.16,20.89,20.89,0,0,0,4.22,7.12,20.47,20.47,0,0,0,6.74,4.88,22.88,22.88,0,0,0,17.84,0,20.53,20.53,0,0,0,6.73-4.88,21.08,21.08,0,0,0,4.23-7.12A25.26,25.26,0,0,0,1348.62,2476Z" transform="translate(-650.95 -1437.35)"/><path d="M1388.53,2501.73h-5.25v-51.55h31.1v4.66h-25.85v17.84h24v4.66h-24Z" transform="translate(-650.95 -1437.35)"/><path d="M1503.8,2458.48a12.53,12.53,0,0,0-4.29-3.75,13.11,13.11,0,0,0-6.34-1.42,13.49,13.49,0,0,0-3.86.58,11.28,11.28,0,0,0-3.57,1.78,9,9,0,0,0-2.58,3,8.83,8.83,0,0,0-1,4.29,8,8,0,0,0,.95,4.08,8.91,8.91,0,0,0,2.5,2.73,14.8,14.8,0,0,0,3.56,1.86c1.33.48,2.73,1,4.18,1.45q2.69.88,5.41,1.9a19.54,19.54,0,0,1,4.9,2.65,13,13,0,0,1,3.56,4.16,13.09,13.09,0,0,1,1.38,6.37,14.17,14.17,0,0,1-1.47,6.66,14,14,0,0,1-3.83,4.62,15.79,15.79,0,0,1-5.37,2.7,21.9,21.9,0,0,1-6.08.87,23.69,23.69,0,0,1-4.66-.47,21.12,21.12,0,0,1-4.44-1.42,18.3,18.3,0,0,1-3.94-2.4,17.53,17.53,0,0,1-3.2-3.35l4.51-3.35a14,14,0,0,0,4.7,4.62,13.28,13.28,0,0,0,7.1,1.86,13.87,13.87,0,0,0,4-.62,11.13,11.13,0,0,0,3.67-1.89,10.5,10.5,0,0,0,2.7-3.14,8.62,8.62,0,0,0,1-4.33,8.74,8.74,0,0,0-1-4.48,9.48,9.48,0,0,0-2.8-3,17.27,17.27,0,0,0-4-2c-1.5-.54-3.08-1.07-4.73-1.61s-3.38-1.14-5-1.82a16.79,16.79,0,0,1-4.44-2.66,12.3,12.3,0,0,1-3.17-4,14.78,14.78,0,0,1,.29-12.3,13.63,13.63,0,0,1,3.9-4.45,16.24,16.24,0,0,1,5.32-2.54,21.37,21.37,0,0,1,5.75-.8,19.86,19.86,0,0,1,9,1.85,15.39,15.39,0,0,1,5.6,4.41Z" transform="translate(-650.95 -1437.35)"/><path d="M1550.55,2494.52h.15l12.89-44.34h6.26l12.89,44.34h.14l12.6-44.34H1601l-15.22,51.55h-6.12l-13-44.27h-.15l-13,44.27h-6.12l-15.22-51.55h5.54Z" transform="translate(-650.95 -1437.35)"/><path d="M1632.33,2501.73h-5.25v-51.55h5.25Z" transform="translate(-650.95 -1437.35)"/><path d="M1689.2,2458.48a12.48,12.48,0,0,0-4.3-3.75,13.1,13.1,0,0,0-6.33-1.42,13.44,13.44,0,0,0-3.86.58,11.28,11.28,0,0,0-3.57,1.78,9.17,9.17,0,0,0-2.59,3,8.94,8.94,0,0,0-1,4.29,8,8,0,0,0,.94,4.08,8.94,8.94,0,0,0,2.51,2.73,14.8,14.8,0,0,0,3.56,1.86c1.33.48,2.72,1,4.17,1.45q2.7.88,5.41,1.9a19.61,19.61,0,0,1,4.91,2.65,13,13,0,0,1,3.56,4.16,13.21,13.21,0,0,1,1.37,6.37,14.17,14.17,0,0,1-1.47,6.66,13.85,13.85,0,0,1-3.82,4.62,15.79,15.79,0,0,1-5.37,2.7,21.9,21.9,0,0,1-6.08.87,23.69,23.69,0,0,1-4.66-.47,21.4,21.4,0,0,1-4.45-1.42,18.23,18.23,0,0,1-3.93-2.4,17.53,17.53,0,0,1-3.2-3.35l4.51-3.35a13.86,13.86,0,0,0,4.7,4.62,13.26,13.26,0,0,0,7.1,1.86,13.81,13.81,0,0,0,4-.62A11.18,11.18,0,0,0,1685,2496a10.64,10.64,0,0,0,2.7-3.14,8.62,8.62,0,0,0,1-4.33,8.74,8.74,0,0,0-1-4.48,9.4,9.4,0,0,0-2.81-3,17,17,0,0,0-4-2c-1.51-.54-3.09-1.07-4.74-1.61s-3.37-1.14-5-1.82a16.79,16.79,0,0,1-4.44-2.66,12.3,12.3,0,0,1-3.17-4,14.78,14.78,0,0,1,.29-12.3,13.63,13.63,0,0,1,3.9-4.45,16.29,16.29,0,0,1,5.31-2.54,21.39,21.39,0,0,1,5.76-.8,19.79,19.79,0,0,1,9,1.85,15.35,15.35,0,0,1,5.61,4.41Z" transform="translate(-650.95 -1437.35)"/><path d="M1748.47,2458.48a12.35,12.35,0,0,0-4.29-3.75,13.11,13.11,0,0,0-6.34-1.42,13.49,13.49,0,0,0-3.86.58,11.28,11.28,0,0,0-3.57,1.78,9.26,9.26,0,0,0-2.58,3,8.83,8.83,0,0,0-1,4.29,8,8,0,0,0,.94,4.08,8.91,8.91,0,0,0,2.5,2.73,15,15,0,0,0,3.56,1.86c1.34.48,2.73,1,4.18,1.45q2.68.88,5.41,1.9a19.54,19.54,0,0,1,4.9,2.65,13,13,0,0,1,3.56,4.16,13.09,13.09,0,0,1,1.38,6.37,14.17,14.17,0,0,1-1.47,6.66,13.87,13.87,0,0,1-3.83,4.62,15.61,15.61,0,0,1-5.37,2.7,21.85,21.85,0,0,1-6.08.87,23.76,23.76,0,0,1-4.66-.47,21.5,21.5,0,0,1-4.44-1.42,18,18,0,0,1-3.93-2.4,17.28,17.28,0,0,1-3.21-3.35l4.52-3.35a13.83,13.83,0,0,0,4.69,4.62,13.28,13.28,0,0,0,7.1,1.86,13.87,13.87,0,0,0,4-.62,11.28,11.28,0,0,0,3.68-1.89,10.47,10.47,0,0,0,2.69-3.14,8.63,8.63,0,0,0,1.06-4.33,8.74,8.74,0,0,0-1.06-4.48,9.37,9.37,0,0,0-2.8-3,17.07,17.07,0,0,0-4-2c-1.5-.54-3.08-1.07-4.73-1.61s-3.38-1.14-5-1.82A16.79,16.79,0,0,1,1726,2473a12.44,12.44,0,0,1-3.17-4,13.08,13.08,0,0,1-1.2-5.9,12.94,12.94,0,0,1,1.5-6.4,13.49,13.49,0,0,1,3.89-4.45,16.34,16.34,0,0,1,5.32-2.54,21.37,21.37,0,0,1,5.75-.8,19.83,19.83,0,0,1,9,1.85,15.39,15.39,0,0,1,5.6,4.41Z" transform="translate(-650.95 -1437.35)"/><path d="M1830.76,2494.52h.15l12.88-44.34h6.27l12.89,44.34h.14l12.6-44.34h5.53L1866,2501.73h-6.12l-13-44.27h-.15l-13,44.27h-6.12l-15.22-51.55H1818Z" transform="translate(-650.95 -1437.35)"/><path d="M1906.06,2501.73h-5.76l22.29-51.55h5.09l22.14,51.55H1944l-5.69-13.54h-26.65Zm7.57-18.35h22.72L1925,2456Z" transform="translate(-650.95 -1437.35)"/><path d="M1987.76,2501.73h-5.24v-46.89h-17.26v-4.66H2005v4.66h-17.26Z" transform="translate(-650.95 -1437.35)"/><path d="M2072.16,2493.36a21.45,21.45,0,0,1-3.17,3.71,20.62,20.62,0,0,1-4.3,3.09,23.83,23.83,0,0,1-5.38,2.11,25.69,25.69,0,0,1-6.45.77,28,28,0,0,1-10.78-2,25.14,25.14,0,0,1-14.09-14.2,28.74,28.74,0,0,1-2-10.85,28.25,28.25,0,0,1,2-10.85,25.62,25.62,0,0,1,14.16-14.2,27.74,27.74,0,0,1,10.67-2,26.55,26.55,0,0,1,10.7,2.25,21.88,21.88,0,0,1,4.37,2.58,14.8,14.8,0,0,1,3.28,3.39l-4.37,3.21a12.86,12.86,0,0,0-2.15-2.48,14.83,14.83,0,0,0-3.16-2.18,20.2,20.2,0,0,0-4-1.53,17.64,17.64,0,0,0-4.63-.58,21.39,21.39,0,0,0-9,1.81,20.2,20.2,0,0,0-6.74,4.9,21.48,21.48,0,0,0-4.22,7.15,25.2,25.2,0,0,0-1.46,8.56,24.57,24.57,0,0,0,1.5,8.57,21.75,21.75,0,0,0,4.26,7.15,20.16,20.16,0,0,0,6.73,4.9,21.22,21.22,0,0,0,8.92,1.81,20.1,20.1,0,0,0,8.45-1.82,16,16,0,0,0,6.7-5.82Z" transform="translate(-650.95 -1437.35)"/><path d="M2099.39,2450.18h5.24v22.35h28.11v-22.35H2138v51.55h-5.25v-24.39h-28.11v24.39h-5.24Z" transform="translate(-650.95 -1437.35)"/><path d="M2195.37,2492.85h.07l17.26-42.67h8v51.55h-5.25V2457h-.14l-18.64,44.78h-2.77L2175.27,2457h-.15v44.78h-5.24v-51.55h8Z" transform="translate(-650.95 -1437.35)"/><path d="M2252.24,2501.73h-5.76l22.29-51.55h5.1l22.13,51.55h-5.82l-5.68-13.54h-26.66Zm7.57-18.35h22.72L2271.17,2456Z" transform="translate(-650.95 -1437.35)"/><path d="M2327,2473.33h.08l24.54-23.15h7.5l-26,23.37,27.45,28.18h-7.71l-25.78-27.45H2327v27.45h-5.24v-51.55H2327Z" transform="translate(-650.95 -1437.35)"/><path d="M2391,2501.73h-5.24v-51.55H2391Z" transform="translate(-650.95 -1437.35)"/><path d="M2459.41,2494.09h.15v-43.91h5.24v51.55h-6.55l-30-44.35h-.14v44.35h-5.25v-51.55h6.56Z" transform="translate(-650.95 -1437.35)"/><path d="M2535.8,2459.5a18.89,18.89,0,0,0-6.41-4.41,21.87,21.87,0,0,0-8.52-1.56,21.19,21.19,0,0,0-8.92,1.81,20.37,20.37,0,0,0-6.74,4.91,22.14,22.14,0,0,0-4.26,7.16,25.45,25.45,0,0,0,0,17.16,21.64,21.64,0,0,0,4.26,7.12,20.57,20.57,0,0,0,6.74,4.88,21.19,21.19,0,0,0,8.92,1.81,31.89,31.89,0,0,0,8-.94,20.69,20.69,0,0,0,5.9-2.41v-15.65h-12v-4.66H2540V2498a33.63,33.63,0,0,1-9.1,3.79,40.78,40.78,0,0,1-10.12,1.24,28,28,0,0,1-10.78-2,25.14,25.14,0,0,1-14.09-14.2,28.55,28.55,0,0,1-2-10.85,28.25,28.25,0,0,1,2-10.85,25.68,25.68,0,0,1,14.17-14.2,27.7,27.7,0,0,1,10.67-2,28.74,28.74,0,0,1,10.77,1.84,23.28,23.28,0,0,1,7.87,5.15Z" transform="translate(-650.95 -1437.35)"/><path d="M2633,2458.48a12.48,12.48,0,0,0-4.3-3.75,13.07,13.07,0,0,0-6.33-1.42,13.49,13.49,0,0,0-3.86.58,11.28,11.28,0,0,0-3.57,1.78,9,9,0,0,0-2.58,3,8.83,8.83,0,0,0-1,4.29,8,8,0,0,0,.95,4.08,8.91,8.91,0,0,0,2.5,2.73,14.8,14.8,0,0,0,3.56,1.86c1.33.48,2.72,1,4.18,1.45q2.68.88,5.41,1.9a19.54,19.54,0,0,1,4.9,2.65,13,13,0,0,1,3.56,4.16,13.09,13.09,0,0,1,1.38,6.37,14.17,14.17,0,0,1-1.48,6.66,13.85,13.85,0,0,1-3.82,4.62,15.79,15.79,0,0,1-5.37,2.7,21.9,21.9,0,0,1-6.08.87,23.69,23.69,0,0,1-4.66-.47,21.12,21.12,0,0,1-4.44-1.42,18.3,18.3,0,0,1-3.94-2.4,17.53,17.53,0,0,1-3.2-3.35l4.51-3.35a14,14,0,0,0,4.7,4.62,13.26,13.26,0,0,0,7.1,1.86,13.87,13.87,0,0,0,4-.62,11.23,11.23,0,0,0,3.67-1.89,10.5,10.5,0,0,0,2.7-3.14,8.62,8.62,0,0,0,1.05-4.33,8.74,8.74,0,0,0-1.05-4.48,9.4,9.4,0,0,0-2.81-3,17,17,0,0,0-4-2c-1.51-.54-3.08-1.07-4.73-1.61s-3.38-1.14-5-1.82a16.79,16.79,0,0,1-4.44-2.66,12.3,12.3,0,0,1-3.17-4,14.78,14.78,0,0,1,.29-12.3,13.63,13.63,0,0,1,3.9-4.45,16.24,16.24,0,0,1,5.32-2.54,21.32,21.32,0,0,1,5.75-.8,19.79,19.79,0,0,1,9,1.85,15.35,15.35,0,0,1,5.61,4.41Z" transform="translate(-650.95 -1437.35)"/><path d="M2672.55,2501.73h-5.24v-51.55h5.24Z" transform="translate(-650.95 -1437.35)"/><path d="M2741,2494.09h.15v-43.91h5.24v51.55h-6.55l-30-44.35h-.15v44.35h-5.24v-51.55H2711Z" transform="translate(-650.95 -1437.35)"/><path d="M2821.69,2493.36a21.45,21.45,0,0,1-3.17,3.71,20.62,20.62,0,0,1-4.3,3.09,23.91,23.91,0,0,1-5.39,2.11,25.55,25.55,0,0,1-6.44.77,28,28,0,0,1-10.78-2,25.14,25.14,0,0,1-14.09-14.2,28.74,28.74,0,0,1-2-10.85,28.25,28.25,0,0,1,2-10.85,25.62,25.62,0,0,1,14.16-14.2,27.74,27.74,0,0,1,10.67-2,26.55,26.55,0,0,1,10.7,2.25,22.16,22.16,0,0,1,4.37,2.58,15,15,0,0,1,3.28,3.39l-4.37,3.21a12.86,12.86,0,0,0-2.15-2.48,14.65,14.65,0,0,0-3.17-2.18,19.86,19.86,0,0,0-4-1.53,17.64,17.64,0,0,0-4.63-.58,21.35,21.35,0,0,0-9,1.81,20.2,20.2,0,0,0-6.74,4.9,21.48,21.48,0,0,0-4.22,7.15,25.2,25.2,0,0,0-1.46,8.56,24.57,24.57,0,0,0,1.5,8.57,21.9,21.9,0,0,0,4.25,7.15,20.2,20.2,0,0,0,6.74,4.9,21.22,21.22,0,0,0,8.92,1.81,20.1,20.1,0,0,0,8.45-1.82,16,16,0,0,0,6.7-5.82Z" transform="translate(-650.95 -1437.35)"/><path d="M2854.16,2497.07h27.6v4.66h-32.84v-51.55h32v4.66h-26.73v17.69h25v4.66h-25Z" transform="translate(-650.95 -1437.35)"/><path d="M2965.87,2501.73h-5.24v-45.07l-9.33,7.93-3.2-3.64,13.11-10.77h4.66Z" transform="translate(-650.95 -1437.35)"/><path d="M3028.13,2474.42a13.42,13.42,0,0,1,7,4.88,14.3,14.3,0,0,1,2.77,8.89,13.69,13.69,0,0,1-1.35,6.15,14.4,14.4,0,0,1-3.61,4.66,16.26,16.26,0,0,1-5.28,3,19.4,19.4,0,0,1-12.59,0,16.26,16.26,0,0,1-5.28-3,14.4,14.4,0,0,1-3.61-4.66,13.68,13.68,0,0,1-1.34-6.15,15.6,15.6,0,0,1,.72-4.84,14.3,14.3,0,0,1,2-4,13.06,13.06,0,0,1,3.1-3,14.06,14.06,0,0,1,3.89-1.9v-.14a10.29,10.29,0,0,1-3.16-1.71,11.07,11.07,0,0,1-2.44-2.7,13.77,13.77,0,0,1-1.61-3.42,12.64,12.64,0,0,1-.58-3.82A13.45,13.45,0,0,1,3008,2457a12.76,12.76,0,0,1,3.16-4.33,14.52,14.52,0,0,1,4.63-2.77,16.43,16.43,0,0,1,11.18,0,14.45,14.45,0,0,1,4.66,2.77,12.76,12.76,0,0,1,3.16,4.33,13.45,13.45,0,0,1,1.17,5.68,12.64,12.64,0,0,1-.58,3.82,14.11,14.11,0,0,1-1.6,3.42,11.49,11.49,0,0,1-2.44,2.7,10.46,10.46,0,0,1-3.17,1.71Zm-18.06,13.18a11.67,11.67,0,0,0,.8,4.37,9.85,9.85,0,0,0,2.29,3.5,10.83,10.83,0,0,0,3.57,2.29,13.15,13.15,0,0,0,9.25,0,10.83,10.83,0,0,0,3.57-2.29,9.85,9.85,0,0,0,2.29-3.5,11.67,11.67,0,0,0,.8-4.37,11.14,11.14,0,0,0-.8-4.29,10,10,0,0,0-2.29-3.42,10.45,10.45,0,0,0-3.57-2.26,13.77,13.77,0,0,0-9.25,0,10.45,10.45,0,0,0-3.57,2.26,10,10,0,0,0-2.29,3.42A11.14,11.14,0,0,0,3010.07,2487.6Zm1.82-24.68a9.1,9.1,0,0,0,.73,3.71,8.65,8.65,0,0,0,2,2.92,9.91,9.91,0,0,0,10.37,1.92,9.76,9.76,0,0,0,3-1.92,8.77,8.77,0,0,0,2-2.92,9.1,9.1,0,0,0,.73-3.71,9.92,9.92,0,0,0-.73-3.82,9.08,9.08,0,0,0-2-3.06,9.44,9.44,0,0,0-3-2,10.13,10.13,0,0,0-7.5,0,9.37,9.37,0,0,0-3,2,9.08,9.08,0,0,0-2,3.06A9.92,9.92,0,0,0,3011.89,2462.92Z" transform="translate(-650.95 -1437.35)"/><path d="M3075.31,2472.68l.15.14a9.06,9.06,0,0,1,3.28-1.38,17.26,17.26,0,0,1,4.08-.51,16.54,16.54,0,0,1,6.22,1.16,15.12,15.12,0,0,1,5,3.25,14.6,14.6,0,0,1,3.31,5,16.93,16.93,0,0,1,1.2,6.44,17.25,17.25,0,0,1-1.23,6.63,14.65,14.65,0,0,1-3.5,5.1,16.44,16.44,0,0,1-5.32,3.31,19.28,19.28,0,0,1-13.39,0,16.44,16.44,0,0,1-5.32-3.31,14.65,14.65,0,0,1-3.5-5.1,17.25,17.25,0,0,1-1.23-6.63,19.63,19.63,0,0,1,1.38-7.42,45.12,45.12,0,0,1,3.28-6.56l14.05-22.64h6Zm-5,14.12a12.79,12.79,0,0,0,.84,4.7,10.89,10.89,0,0,0,2.36,3.72,11.44,11.44,0,0,0,3.64,2.47,12.41,12.41,0,0,0,9.33,0,11.44,11.44,0,0,0,3.64-2.47,11,11,0,0,0,2.36-3.72,12.79,12.79,0,0,0,.84-4.7,13.19,13.19,0,0,0-.8-4.62,10.89,10.89,0,0,0-2.29-3.71,10.28,10.28,0,0,0-3.64-2.44,13.37,13.37,0,0,0-9.54,0,10.23,10.23,0,0,0-3.65,2.44,10.74,10.74,0,0,0-2.29,3.71A13.19,13.19,0,0,0,3070.29,2486.8Z" transform="translate(-650.95 -1437.35)"/><path d="M3155.71,2454.84h-21.48l-.37,15.94a20.59,20.59,0,0,1,3.52-.87,23.69,23.69,0,0,1,3.6-.29,18.78,18.78,0,0,1,6.68,1.16,15.92,15.92,0,0,1,5.3,3.32,14.9,14.9,0,0,1,3.48,5.13,17.05,17.05,0,0,1,1.23,6.55,18.91,18.91,0,0,1-1.22,6.89,15.61,15.61,0,0,1-8.86,9.06,17.9,17.9,0,0,1-7,1.31,16.23,16.23,0,0,1-15.43-9.39l4.73-2.11a11.5,11.5,0,0,0,4.19,5.09,10.79,10.79,0,0,0,6.22,1.9,12.65,12.65,0,0,0,4.85-.91,11.43,11.43,0,0,0,3.82-2.55,11.79,11.79,0,0,0,2.51-3.9,12.84,12.84,0,0,0,.91-4.88,13,13,0,0,0-1-5.13,11.54,11.54,0,0,0-2.7-3.9,12.1,12.1,0,0,0-4-2.47,14.45,14.45,0,0,0-5.1-.88,20.27,20.27,0,0,0-5.49.77,26.44,26.44,0,0,0-5.21,2.07l.51-26.57h26.29Z" transform="translate(-650.95 -1437.35)"/></svg>